<?xml version="1.0" encoding="UTF-8" ?>
<svg version="1.1" width="64" height="64" xmlns="http://www.w3.org/2000/svg" shape-rendering="crispEdges">
<rect x="26" y="0" width="12" height="64" fill="#B80000" />
<rect x="20" y="2" width="6" height="60" fill="#B80000" />
<rect x="38" y="2" width="6" height="60" fill="#B80000" />
<rect x="16" y="4" width="4" height="56" fill="#B80000" />
<rect x="44" y="4" width="4" height="56" fill="#B80000" />
<rect x="14" y="6" width="2" height="52" fill="#B80000" />
<rect x="48" y="6" width="2" height="52" fill="#B80000" />
<rect x="10" y="8" width="4" height="48" fill="#B80000" />
<rect x="50" y="8" width="4" height="48" fill="#B80000" />
<rect x="8" y="10" width="2" height="44" fill="#B80000" />
<rect x="54" y="10" width="2" height="44" fill="#B80000" />
<rect x="6" y="14" width="2" height="36" fill="#B80000" />
<rect x="56" y="14" width="2" height="36" fill="#B80000" />
<rect x="4" y="16" width="2" height="32" fill="#B80000" />
<rect x="58" y="16" width="2" height="32" fill="#B80000" />
<rect x="2" y="20" width="2" height="24" fill="#B80000" />
<rect x="60" y="20" width="2" height="24" fill="#B80000" />
<rect x="0" y="26" width="2" height="12" fill="#B80000" />
<rect x="62" y="26" width="2" height="12" fill="#B80000" />
</svg>